<svg xmlns="http://www.w3.org/2000/svg" version="1.1" xmlns:xlink="http://www.w3.org/1999/xlink" xmlns:svgjs="http://svgjs.dev/svgjs" width="2000" height="666" viewBox="0 0 2000 666"><g transform="matrix(1,0,0,1,-1.2121212121212466,-0.5088162723056371)"><svg viewBox="0 0 396 132" data-background-color="#000000" preserveAspectRatio="xMidYMid meet" height="666" width="2000" xmlns="http://www.w3.org/2000/svg" xmlns:xlink="http://www.w3.org/1999/xlink"><g id="tight-bounds" transform="matrix(1,0,0,1,0.2400000000000091,0.1008464683849013)"><svg viewBox="0 0 395.52 131.79830706323023" height="131.79830706323023" width="395.52"><g><svg viewBox="0 0 643.669108411754 214.48851839999998" height="131.79830706323023" width="395.52"><g transform="matrix(1,0,0,1,0,35.95240824574371)"><svg viewBox="0 0 395.52 142.58370190851255" height="142.58370190851255" width="395.52"><g id="textblocktransform"><svg viewBox="0 0 395.52 142.58370190851255" height="142.58370190851255" width="395.52" id="textblock"><g><svg viewBox="0 0 395.52 142.58370190851255" height="142.58370190851255" width="395.52"><g transform="matrix(1,0,0,1,0,0)"><svg width="395.52" viewBox="0.15 -37.94 161.16 58.11" height="142.58370190851255" data-palette-color="url(#8c1e8755-66b3-48a4-b673-b522d6506100)"></svg></g></svg></g></svg></g></svg></g><g transform="matrix(1,0,0,1,429.180590011754,0)"><svg viewBox="0 0 214.48851839999998 214.48851839999998" height="214.48851839999998" width="214.48851839999998"><g><svg></svg></g><g id="icon-0"><svg viewBox="0 0 214.48851839999998 214.48851839999998" height="214.48851839999998" width="214.48851839999998"><g></g><g transform="matrix(1,0,0,1,27.80437133239039,27.80406719999999)"><svg viewBox="0 0 158.8797757352192 158.880384" height="158.880384" width="158.8797757352192"><g><svg xmlns="http://www.w3.org/2000/svg" xmlns:xlink="http://www.w3.org/1999/xlink" version="1.1" x="0" y="0" viewBox="19.403 19.403 261.19300003318745 261.19399999999996" enable-background="new 0 0 300 300" xml:space="preserve" height="158.880384" width="158.8797757352192" class="icon-dxe-0" data-fill-palette-color="quaternary" id="dxe-0"><path d="M230.223 280.597H69.777C42.001 280.597 19.403 258 19.403 230.225V69.777C19.403 42.001 42.001 19.403 69.777 19.403H230.222C257.998 19.403 280.596 42.001 280.596 69.777V230.225C280.597 258 257.999 280.597 230.223 280.597M69.777 30.598C48.173 30.598 30.596 48.174 30.596 69.777V230.225C30.596 251.828 48.172 269.404 69.777 269.404H230.222C251.826 269.404 269.403 251.828 269.403 230.225V69.777C269.403 48.173 251.827 30.598 230.222 30.598z" fill="#000000" data-fill-palette-color="quaternary"></path><polygon points="128.092,94.407 128.092,104.407 202.5,104.407 202.5,175.592 179.929,175.592 171.998,183.523 164.067,175.592   97.5,175.592 97.5,104.407 108.092,104.407 108.092,94.407 87.5,94.407 87.5,185.592 159.925,185.592 171.998,197.664   184.071,185.592 212.5,185.592 212.5,94.407 " fill="#000000" data-fill-palette-color="quaternary"></polygon></svg></g></svg></g></svg></g></svg></g></svg></g><defs></defs><mask id="be26dab7-e729-4cb1-b004-074e62e46e32"><g id="SvgjsG1728"><svg viewBox="0 0 395.52 131.79830706323023" height="131.79830706323023" width="395.52"><g><svg viewBox="0 0 643.669108411754 214.48851839999998" height="131.79830706323023" width="395.52"><g transform="matrix(1,0,0,1,0,35.95240824574371)"><svg viewBox="0 0 395.52 142.58370190851255" height="142.58370190851255" width="395.52"><g id="SvgjsG1727"><svg viewBox="0 0 395.52 142.58370190851255" height="142.58370190851255" width="395.52" id="SvgjsSvg1726"><g><svg viewBox="0 0 395.52 142.58370190851255" height="142.58370190851255" width="395.52"><g transform="matrix(1,0,0,1,0,0)"><svg width="395.52" viewBox="0.15 -37.94 161.16 58.11" height="142.58370190851255" data-palette-color="url(#8c1e8755-66b3-48a4-b673-b522d6506100)"><path d="M8.3-27.15L0.15-26.51 0.93-29.05Q0.98-29.1 1.68-29.17 2.39-29.25 3.56-29.37 4.74-29.49 6.2-29.64 7.67-29.79 9.2-29.93 10.74-30.08 12.23-30.22 13.72-30.37 14.99-30.52L14.99-30.52Q14.99-30.52 15.43-30.52 15.87-30.52 16.41-30.52 16.94-30.52 17.43-30.52 17.92-30.52 18.07-30.52L18.07-30.52Q19.24-30.52 19.68-30.08 20.12-29.64 20.12-28.17L20.12-28.17 11.23-27.15Q11.13-24.07 11.33-20.7 11.52-17.33 11.82-13.89 12.11-10.45 12.38-7.08 12.65-3.71 12.65-0.63L12.65-0.63Q12.65-0.2 12.38-0.02 12.11 0.15 11.74 0.2 11.38 0.24 10.99 0.17 10.6 0.1 10.3 0L10.3 0Q10.16-0.63 10.01-2.2 9.86-3.76 9.72-5.86 9.57-7.96 9.42-10.4 9.28-12.84 9.13-15.28 8.98-17.72 8.84-19.95 8.69-22.17 8.59-23.85 8.5-25.54 8.42-26.46 8.35-27.39 8.3-27.15L8.3-27.15ZM19.68-4.2L19.68-4.2Q19.68-6.98 21.21-8.25 22.75-9.52 25.24-9.52L25.24-9.52Q26.22-9.52 27.07-9.47 27.93-9.42 28.71-9.23 29.49-9.03 30.25-8.64 31-8.25 31.83-7.52L31.83-7.52Q31.83-7.67 31.86-8.13 31.88-8.59 31.88-9.13 31.88-9.67 31.88-10.13 31.88-10.6 31.88-10.79L31.88-10.79Q31.83-11.67 31.83-13.06 31.83-14.45 31.61-15.92 31.39-17.38 30.73-18.7 30.08-20.02 28.61-20.7L28.61-20.7Q27.59-20.7 26.71-20.36 25.83-20.02 24.95-19.63 24.07-19.24 23.19-18.92 22.31-18.6 21.29-18.6L21.29-18.6Q21.29-19.82 22.04-20.63 22.8-21.44 23.87-21.88 24.95-22.31 26.12-22.46 27.29-22.61 28.17-22.61L28.17-22.61Q29.05-22.46 29.81-22.27 30.56-22.07 31.22-21.48 31.88-20.9 32.44-19.7 33.01-18.51 33.42-16.36 33.84-14.21 34.15-10.91 34.47-7.62 34.67-2.83L34.67-2.83Q34.76-2.2 34.25-1.73 33.74-1.27 32.86-0.95 31.98-0.63 30.88-0.42 29.78-0.2 28.66-0.1 27.54 0 26.51 0.05 25.49 0.1 24.8 0.1L24.8 0.1Q23.92 0.1 23.02-0.2 22.12-0.49 21.36-1.05 20.6-1.61 20.14-2.42 19.68-3.22 19.68-4.2ZM26.02-7.62L26.02-7.62Q23.58-6.93 22.6-5.98 21.63-5.03 21.75-4.15 21.87-3.27 22.9-2.56 23.92-1.86 25.39-1.64 26.85-1.42 28.56-1.88 30.27-2.34 31.83-3.71L31.83-3.71Q31.25-5.13 30.66-5.88 30.08-6.64 29.39-7.03 28.71-7.42 27.88-7.52 27.05-7.62 26.02-7.62ZM37.79-37.94L37.79-37.94Q38.47-37.84 38.98-37.57 39.5-37.3 39.79-36.62L39.79-36.62Q39.79-35.69 39.86-34.06 39.94-32.42 40.01-30.27 40.08-28.13 40.18-25.63 40.28-23.14 40.38-20.61 40.47-18.07 40.55-15.58 40.62-13.09 40.69-10.94 40.77-8.79 40.82-7.13 40.86-5.47 40.91-4.59L40.91-4.59Q40.91-4.49 40.89-4.25 40.86-4 40.84-3.66 40.82-3.32 40.79-3 40.77-2.69 40.77-2.54L40.77-2.54Q40.72-2.25 40.72-1.83 40.72-1.42 40.62-1.03 40.52-0.63 40.3-0.32 40.08 0 39.59 0.05L39.59 0.05 38.76-0.98Q38.72-1.03 38.64-2.81 38.57-4.59 38.45-7.45 38.33-10.3 38.23-13.89 38.13-17.48 38.01-21.14 37.89-24.8 37.79-28.17 37.69-31.54 37.64-33.98L37.64-33.98Q37.64-34.18 37.67-34.77 37.69-35.35 37.71-35.96 37.74-36.57 37.76-37.13 37.79-37.7 37.79-37.94ZM45.45-1.32L45.45-1.32Q45.4-2.34 45.23-4.47 45.06-6.59 44.87-9.25 44.67-11.91 44.47-14.89 44.28-17.87 44.11-20.53 43.94-23.19 43.79-25.32 43.64-27.44 43.6-28.47L43.6-28.47Q43.55-28.91 43.52-30 43.5-31.1 43.45-32.35 43.4-33.59 43.38-34.69 43.35-35.79 43.35-36.23L43.35-36.23Q44.04-36.23 44.57-35.96 45.11-35.69 45.45-35.06L45.45-35.06Q45.55-34.03 45.67-32.15 45.79-30.27 45.94-27.83 46.09-25.39 46.26-22.61 46.43-19.82 46.57-17.09L46.57-17.09Q46.72-17.33 46.87-17.53 47.01-17.72 47.06-17.77L47.06-17.77Q47.6-18.36 48.33-19.14 49.06-19.92 49.87-20.75 50.68-21.58 51.48-22.39 52.29-23.19 52.95-23.85 53.61-24.51 54.05-24.9 54.48-25.29 54.58-25.29L54.58-25.29 56.44-24.37Q55.61-23.63 54.53-22.66 53.46-21.68 52.43-20.58 51.41-19.48 50.46-18.29 49.5-17.09 48.92-15.92L48.92-15.92Q48.92-15.87 48.89-15.7 48.87-15.53 48.87-15.43L48.87-15.43Q48.87-15.38 48.89-15.21 48.92-15.04 48.92-14.99L48.92-14.99 60.2-1.86Q60.2-1.81 60.22-1.66 60.25-1.51 60.25-1.42L60.25-1.42Q60.25-0.49 59.27 0L59.27 0 47.06-14.06Q47.01-14.11 46.94-14.23 46.87-14.36 46.77-14.5L46.77-14.5 47.31-5.03Q47.31-4.79 47.33-4.1 47.36-3.42 47.38-2.61 47.4-1.81 47.43-1.1 47.45-0.39 47.45-0.15L47.45-0.15Q46.82-0.15 46.28-0.42 45.74-0.68 45.45-1.32ZM70.74-2.83L70.74-2.83Q69.42-2.1 68.35-1.95 67.28-1.81 65.91-1.81L65.91-1.81Q65.37-1.81 64.71-1.88 64.05-1.95 63.49-2.22 62.93-2.49 62.56-2.95 62.2-3.42 62.2-4.25L62.2-4.25Q62.2-4.74 63.17-4.93 64.15-5.13 65.64-5.4 67.13-5.66 68.86-6.2 70.6-6.74 72.08-7.93 73.57-9.13 74.57-11.23 75.58-13.33 75.58-16.65L75.58-16.65Q75.58-18.07 75.33-19.6 75.09-21.14 74.45-22.41 73.82-23.68 72.67-24.54 71.52-25.39 69.72-25.39L69.72-25.39Q68.98-25.39 68.4-25.05 67.81-24.71 67.32-24.24 66.84-23.78 66.4-23.19 65.96-22.61 65.44-22.12 64.93-21.63 64.32-21.31 63.71-21 62.83-21L62.83-21Q62.83-22.31 63.44-23.46 64.05-24.61 65.05-25.46 66.05-26.32 67.3-26.81 68.54-27.29 69.81-27.29L69.81-27.29Q71.77-27.29 73.35-26.32 74.94-25.34 76.04-23.83 77.14-22.31 77.72-20.48 78.31-18.65 78.31-16.89L78.31-16.89Q78.31-15.19 77.82-13.53 77.33-11.87 76.53-10.3 75.72-8.74 74.72-7.32 73.72-5.91 72.65-4.69L72.65-4.69Q73.72-3.76 75.16-3.22 76.6-2.69 78.12-2.39 79.63-2.1 81.12-1.98 82.61-1.86 83.88-1.86L83.88-1.86Q83.93-1.81 83.95-1.64 83.97-1.46 83.97-1.42L83.97-1.42Q83.97-0.88 83.58-0.56 83.19-0.24 82.66-0.1 82.12 0.05 81.53 0.07 80.95 0.1 80.56 0.1L80.56 0.1Q79.24 0.1 78.07-0.15 76.89-0.39 75.72-0.81 74.55-1.22 73.33-1.73 72.11-2.25 70.74-2.83ZM67.96-3.71L67.96-3.71Q68.06-3.96 67.74-4.05 67.42-4.15 67.03-4.15 66.64-4.15 66.3-4.05 65.96-3.96 66.05-3.71L66.05-3.71Q66.2-3.52 66.47-3.42 66.74-3.32 67.03-3.32 67.32-3.32 67.57-3.42 67.81-3.52 67.96-3.71ZM94.03-30.42L94.03-30.42Q95.84-30.42 97.18-29.37 98.52-28.32 99.52-26.56 100.52-24.8 101.21-22.51 101.89-20.21 102.33-17.7 102.77-15.19 103.01-12.62 103.26-10.06 103.36-7.81 103.45-5.57 103.48-3.76 103.5-1.95 103.5-0.93L103.5-0.93 102.33-0.93 100.48-11.23Q100.23-11.47 99.38-11.52 98.52-11.57 97.38-11.47 96.23-11.38 94.88-11.21 93.54-11.04 92.35-10.96 91.15-10.89 90.17-10.91 89.2-10.94 88.76-11.23L88.76-11.23 88.76-0.93 86.27-0.93Q86.27-1.07 86.29-1.49 86.32-1.9 86.32-2.34 86.32-2.78 86.36-3.17 86.41-3.56 86.41-3.71L86.41-3.71Q86.71-6.54 86.88-9.45 87.05-12.35 87.29-15.09 87.54-17.82 87.95-20.31 88.37-22.8 89.15-24.83 89.93-26.86 91.1-28.3 92.27-29.74 94.03-30.42ZM94.81-28.17L94.81-28.17Q93.54-28.17 92.69-27.27 91.83-26.37 91.3-24.93 90.76-23.49 90.47-21.73 90.17-19.97 90.08-18.29 89.98-16.6 89.95-15.16 89.93-13.72 89.93-12.94L89.93-12.94Q92.32-12.94 94.81-13.31 97.3-13.67 99.5-14.06L99.5-14.06Q99.55-14.26 99.57-14.7 99.6-15.14 99.62-15.67 99.65-16.21 99.67-16.7 99.69-17.19 99.69-17.33L99.69-17.33Q99.69-18.95 99.52-20.41 99.35-21.88 98.84-23.27 98.33-24.66 97.38-25.88 96.42-27.1 94.81-28.17ZM106.33-0.24L106.33-0.24Q106.24-1.03 106.16-2.51 106.09-4 106.02-5.88 105.94-7.76 105.89-9.81 105.84-11.87 105.8-13.72 105.75-15.58 105.67-17.07 105.6-18.55 105.45-19.34L105.45-19.34Q105.45-19.38 105.43-19.58 105.4-19.78 105.38-20.02 105.36-20.26 105.36-20.43 105.36-20.61 105.36-20.7L105.36-20.7Q106.09-21.29 106.6-21.09 107.11-20.9 107.46-20.24 107.8-19.58 107.94-18.6 108.09-17.63 108.16-16.65 108.24-15.67 108.24-14.87 108.24-14.06 108.24-13.72L108.24-13.72Q108.33-14.55 108.53-15.67 108.73-16.8 109.12-17.97 109.51-19.14 110.07-20.29 110.63-21.44 111.46-22.31 112.29-23.19 113.34-23.68 114.39-24.17 115.76-24.07L115.76-24.07Q117.9-23.97 119.3-22.9 120.69-21.83 121.49-20.02 122.3-18.21 122.67-15.87 123.03-13.53 123.15-10.89 123.28-8.25 123.23-5.54 123.18-2.83 123.18-0.34L123.18-0.34Q122.74-0.24 122.3-0.02 121.86 0.2 121.57 0.17 121.27 0.15 121.15-0.27 121.03-0.68 121.23-1.9L121.23-1.9Q121.27-2.78 121.4-4.61 121.52-6.45 121.49-8.69 121.47-10.94 121.23-13.33 120.98-15.72 120.32-17.7 119.66-19.68 118.44-20.92 117.22-22.17 115.27-22.17L115.27-22.17Q113.27-21.34 111.92-19.04 110.58-16.75 109.78-13.67 108.97-10.6 108.6-7.01 108.24-3.42 108.19 0L108.19 0Q108.09-0.05 107.82-0.05 107.55-0.05 107.24-0.07 106.92-0.1 106.65-0.15 106.38-0.2 106.33-0.24ZM137.09 20.17L134.89 20.02Q134.89 17.58 135.33 14.99 135.77 12.4 136.24 9.81 136.7 7.23 137.02 4.64 137.34 2.05 137.09-0.44L137.09-0.44 124.93-21.04Q126.01-22.02 126.64-22.14 127.28-22.27 127.38-22.17L127.38-22.17Q127.72-21.68 128.52-20.36 129.33-19.04 130.38-17.29 131.43-15.53 132.6-13.57 133.77-11.62 134.82-9.86 135.87-8.11 136.63-6.74 137.38-5.37 137.68-4.83L137.68-4.83 139.92-22.95 142.37-21.73 137.09 20.17ZM144.56-1.81L144.56-1.81Q145.49-2 145.98-2.08 146.46-2.15 146.78-2.2 147.1-2.25 147.34-2.25 147.59-2.25 147.98-2.29 148.37-2.34 149.03-2.44 149.69-2.54 150.91-2.83L150.91-2.83Q151.35-4.15 151.59-5.88 151.84-7.62 151.98-9.59 152.13-11.57 152.2-13.67 152.27-15.77 152.32-17.82 152.37-19.87 152.47-21.8 152.57-23.73 152.76-25.29L152.76-25.29Q152.71-25.29 152.54-25.32 152.37-25.34 152.32-25.34L152.32-25.34Q151.3-25.34 150.35-24.9 149.39-24.46 148.47-23.95 147.54-23.44 146.59-23 145.63-22.56 144.56-22.56L144.56-22.56 144.36-24.37Q144.41-24.37 145-24.66 145.59-24.95 146.49-25.32 147.39-25.68 148.54-26.15 149.69-26.61 150.81-27.03 151.93-27.44 152.93-27.78 153.94-28.13 154.67-28.27L154.67-28.27 154.67-3.71Q155.11-3.27 155.96-3.2 156.82-3.13 157.77-3.17 158.72-3.22 159.67-3.27 160.62-3.32 161.31-3.17L161.31-3.17 161.26-1.17Q159.26-1.17 157.3-0.98 155.35-0.78 153.42-0.56 151.49-0.34 149.56-0.15 147.64 0.05 145.73 0.05L145.73 0.05Q145.19 0.05 145.05-0.54 144.9-1.12 144.56-1.81Z" opacity="1" transform="matrix(1,0,0,1,0,0)" fill="white" class="wordmark-text-0" id="SvgjsPath1725"></path></svg></g></svg></g></svg></g></svg></g><g transform="matrix(1,0,0,1,429.180590011754,0)"><svg viewBox="0 0 214.48851839999998 214.48851839999998" height="214.48851839999998" width="214.48851839999998"><g><svg></svg></g><g id="SvgjsG1724"><svg viewBox="0 0 214.48851839999998 214.48851839999998" height="214.48851839999998" width="214.48851839999998"><g><rect width="195.02567136" height="195.02567136" x="9.731423519999993" y="9.731423519999993" fill="black"></rect><rect width="195.02567136" height="195.02567136" x="-5.329070518200751e-15" y="-5.329070518200751e-15" fill="black" opacity="0.5"></rect></g><g transform="matrix(1,0,0,1,27.80437133239039,27.80406719999999)"><svg viewBox="0 0 158.8797757352192 158.880384" height="158.880384" width="158.8797757352192"><g><svg xmlns="http://www.w3.org/2000/svg" xmlns:xlink="http://www.w3.org/1999/xlink" version="1.1" x="0" y="0" viewBox="19.403 19.403 261.19300003318745 261.19399999999996" enable-background="new 0 0 300 300" xml:space="preserve" height="158.880384" width="158.8797757352192" class="icon-dxe-0" data-fill-palette-color="quaternary" id="SvgjsSvg1723"><path d="M230.223 280.597H69.777C42.001 280.597 19.403 258 19.403 230.225V69.777C19.403 42.001 42.001 19.403 69.777 19.403H230.222C257.998 19.403 280.596 42.001 280.596 69.777V230.225C280.597 258 257.999 280.597 230.223 280.597M69.777 30.598C48.173 30.598 30.596 48.174 30.596 69.777V230.225C30.596 251.828 48.172 269.404 69.777 269.404H230.222C251.826 269.404 269.403 251.828 269.403 230.225V69.777C269.403 48.173 251.827 30.598 230.222 30.598z" fill="black"></path><polygon points="128.092,94.407 128.092,104.407 202.5,104.407 202.5,175.592 179.929,175.592 171.998,183.523 164.067,175.592   97.5,175.592 97.5,104.407 108.092,104.407 108.092,94.407 87.5,94.407 87.5,185.592 159.925,185.592 171.998,197.664   184.071,185.592 212.5,185.592 212.5,94.407 " fill="black"></polygon></svg></g></svg></g></svg></g></svg></g></svg></g><defs><mask></mask></defs></svg><rect width="395.52" height="131.79830706323023" fill="black" stroke="none" visibility="hidden"></rect></g></mask><linearGradient x1="0" x2="1" y1="0.578" y2="0.595" id="8c1e8755-66b3-48a4-b673-b522d6506100"><stop stop-color="#6ee2f5" offset="0"></stop><stop stop-color="#6454f0" offset="1"></stop></linearGradient><rect width="395.52" height="131.79830706323023" fill="#ffffff" mask="url(#be26dab7-e729-4cb1-b004-074e62e46e32)" data-fill-palette-color="primary"></rect><mask id="cd12e504-2a04-40c7-b972-77a42662fc5d"><g id="SvgjsG1751"><svg viewBox="0 0 395.52 131.79830706323023" height="131.79830706323023" width="395.52"><g><svg viewBox="0 0 643.669108411754 214.48851839999998" height="131.79830706323023" width="395.52"><g transform="matrix(1,0,0,1,0,35.95240824574371)"><svg viewBox="0 0 395.52 142.58370190851255" height="142.58370190851255" width="395.52"><g id="SvgjsG1750"><svg viewBox="0 0 395.52 142.58370190851255" height="142.58370190851255" width="395.52" id="SvgjsSvg1749"><g><svg viewBox="0 0 395.52 142.58370190851255" height="142.58370190851255" width="395.52"><g transform="matrix(1,0,0,1,0,0)"><svg width="395.52" viewBox="0.15 -37.94 161.16 58.11" height="142.58370190851255" data-palette-color="url(#8c1e8755-66b3-48a4-b673-b522d6506100)"></svg></g></svg></g></svg></g></svg></g><g transform="matrix(1,0,0,1,429.180590011754,0)"><svg viewBox="0 0 214.48851839999998 214.48851839999998" height="214.48851839999998" width="214.48851839999998"><g><svg></svg></g><g id="SvgjsG1748"><svg viewBox="0 0 214.48851839999998 214.48851839999998" height="214.48851839999998" width="214.48851839999998"><g><rect width="195.02567136" height="195.02567136" x="9.731423519999993" y="9.731423519999993" fill="white"></rect><rect width="195.02567136" height="195.02567136" x="-5.329070518200751e-15" y="-5.329070518200751e-15" fill="white" opacity="0.5"></rect></g><g transform="matrix(1,0,0,1,27.80437133239039,27.80406719999999)"><svg viewBox="0 0 158.8797757352192 158.880384" height="158.880384" width="158.8797757352192"><g><svg xmlns="http://www.w3.org/2000/svg" xmlns:xlink="http://www.w3.org/1999/xlink" version="1.1" x="0" y="0" viewBox="19.403 19.403 261.19300003318745 261.19399999999996" enable-background="new 0 0 300 300" xml:space="preserve" height="158.880384" width="158.8797757352192" class="icon-dxe-0" data-fill-palette-color="quaternary" id="SvgjsSvg1747"><path d="M230.223 280.597H69.777C42.001 280.597 19.403 258 19.403 230.225V69.777C19.403 42.001 42.001 19.403 69.777 19.403H230.222C257.998 19.403 280.596 42.001 280.596 69.777V230.225C280.597 258 257.999 280.597 230.223 280.597M69.777 30.598C48.173 30.598 30.596 48.174 30.596 69.777V230.225C30.596 251.828 48.172 269.404 69.777 269.404H230.222C251.826 269.404 269.403 251.828 269.403 230.225V69.777C269.403 48.173 251.827 30.598 230.222 30.598z" fill="black"></path><polygon points="128.092,94.407 128.092,104.407 202.5,104.407 202.5,175.592 179.929,175.592 171.998,183.523 164.067,175.592   97.5,175.592 97.5,104.407 108.092,104.407 108.092,94.407 87.5,94.407 87.5,185.592 159.925,185.592 171.998,197.664   184.071,185.592 212.5,185.592 212.5,94.407 " fill="black"></polygon></svg></g></svg></g></svg></g></svg></g></svg></g><defs><mask></mask></defs><mask><g id="SvgjsG1746"><svg viewBox="0 0 395.52 131.79830706323023" height="131.79830706323023" width="395.52"><g><svg viewBox="0 0 643.669108411754 214.48851839999998" height="131.79830706323023" width="395.52"><g transform="matrix(1,0,0,1,0,35.95240824574371)"><svg viewBox="0 0 395.52 142.58370190851255" height="142.58370190851255" width="395.52"><g id="SvgjsG1745"><svg viewBox="0 0 395.52 142.58370190851255" height="142.58370190851255" width="395.52" id="SvgjsSvg1744"><g><svg viewBox="0 0 395.52 142.58370190851255" height="142.58370190851255" width="395.52"><g transform="matrix(1,0,0,1,0,0)"><svg width="395.52" viewBox="0.15 -37.94 161.16 58.11" height="142.58370190851255" data-palette-color="url(#8c1e8755-66b3-48a4-b673-b522d6506100)"><path d="M8.3-27.15L0.15-26.51 0.93-29.05Q0.98-29.1 1.68-29.17 2.39-29.25 3.56-29.37 4.74-29.49 6.2-29.64 7.67-29.79 9.2-29.93 10.74-30.08 12.23-30.22 13.72-30.37 14.99-30.52L14.99-30.52Q14.99-30.52 15.43-30.52 15.87-30.52 16.41-30.52 16.94-30.52 17.43-30.52 17.92-30.52 18.07-30.52L18.07-30.52Q19.24-30.52 19.68-30.08 20.12-29.64 20.12-28.17L20.12-28.17 11.23-27.15Q11.13-24.07 11.33-20.7 11.52-17.33 11.82-13.89 12.11-10.45 12.38-7.08 12.65-3.71 12.65-0.63L12.65-0.63Q12.65-0.2 12.38-0.02 12.11 0.15 11.74 0.2 11.38 0.24 10.99 0.17 10.6 0.1 10.3 0L10.3 0Q10.16-0.63 10.01-2.2 9.86-3.76 9.72-5.86 9.57-7.96 9.42-10.4 9.28-12.84 9.13-15.28 8.98-17.72 8.84-19.95 8.69-22.17 8.59-23.85 8.5-25.54 8.42-26.46 8.35-27.39 8.3-27.15L8.3-27.15ZM19.68-4.2L19.68-4.2Q19.68-6.98 21.21-8.25 22.75-9.52 25.24-9.52L25.24-9.52Q26.22-9.52 27.07-9.47 27.93-9.42 28.71-9.23 29.49-9.03 30.25-8.64 31-8.25 31.83-7.52L31.83-7.52Q31.83-7.67 31.86-8.13 31.88-8.59 31.88-9.13 31.88-9.67 31.88-10.13 31.88-10.6 31.88-10.79L31.88-10.79Q31.83-11.67 31.83-13.06 31.83-14.45 31.61-15.92 31.39-17.38 30.73-18.7 30.08-20.02 28.61-20.7L28.61-20.7Q27.59-20.7 26.71-20.36 25.83-20.02 24.95-19.63 24.07-19.24 23.19-18.92 22.31-18.6 21.29-18.6L21.29-18.6Q21.29-19.82 22.04-20.63 22.8-21.44 23.87-21.88 24.95-22.31 26.12-22.46 27.29-22.61 28.17-22.61L28.17-22.61Q29.05-22.46 29.81-22.27 30.56-22.07 31.22-21.48 31.88-20.9 32.44-19.7 33.01-18.51 33.42-16.36 33.84-14.21 34.15-10.91 34.47-7.62 34.67-2.83L34.67-2.83Q34.76-2.2 34.25-1.73 33.74-1.27 32.86-0.95 31.98-0.63 30.88-0.42 29.78-0.2 28.66-0.1 27.54 0 26.51 0.05 25.49 0.1 24.8 0.1L24.8 0.1Q23.92 0.1 23.02-0.2 22.12-0.49 21.36-1.05 20.6-1.61 20.14-2.42 19.68-3.22 19.68-4.2ZM26.02-7.62L26.02-7.62Q23.58-6.93 22.6-5.98 21.63-5.03 21.75-4.15 21.87-3.27 22.9-2.56 23.92-1.86 25.39-1.64 26.85-1.42 28.56-1.88 30.27-2.34 31.83-3.71L31.83-3.71Q31.25-5.13 30.66-5.88 30.08-6.64 29.39-7.03 28.71-7.42 27.88-7.52 27.05-7.62 26.02-7.62ZM37.79-37.94L37.79-37.94Q38.47-37.84 38.98-37.57 39.5-37.3 39.79-36.62L39.79-36.62Q39.79-35.69 39.86-34.06 39.94-32.42 40.01-30.27 40.08-28.13 40.18-25.63 40.28-23.14 40.38-20.61 40.47-18.07 40.55-15.58 40.62-13.09 40.69-10.94 40.77-8.79 40.82-7.13 40.86-5.47 40.91-4.59L40.91-4.59Q40.91-4.49 40.89-4.25 40.86-4 40.84-3.66 40.82-3.32 40.79-3 40.77-2.69 40.77-2.54L40.77-2.54Q40.72-2.25 40.72-1.83 40.72-1.42 40.62-1.03 40.52-0.63 40.3-0.32 40.08 0 39.59 0.05L39.59 0.05 38.76-0.98Q38.72-1.03 38.64-2.81 38.57-4.59 38.45-7.45 38.33-10.3 38.23-13.89 38.13-17.48 38.01-21.14 37.89-24.8 37.79-28.17 37.69-31.54 37.64-33.98L37.64-33.98Q37.64-34.18 37.67-34.77 37.69-35.35 37.71-35.96 37.74-36.57 37.76-37.13 37.79-37.7 37.79-37.94ZM45.45-1.32L45.45-1.32Q45.4-2.34 45.23-4.47 45.06-6.59 44.87-9.25 44.67-11.91 44.47-14.89 44.28-17.87 44.11-20.53 43.94-23.19 43.79-25.32 43.64-27.44 43.6-28.47L43.6-28.47Q43.55-28.91 43.52-30 43.5-31.1 43.45-32.35 43.4-33.59 43.38-34.69 43.35-35.79 43.35-36.23L43.35-36.23Q44.04-36.23 44.57-35.96 45.11-35.69 45.45-35.06L45.45-35.06Q45.55-34.03 45.67-32.15 45.79-30.27 45.94-27.83 46.09-25.39 46.26-22.61 46.43-19.82 46.57-17.09L46.57-17.09Q46.72-17.33 46.87-17.53 47.01-17.72 47.06-17.77L47.06-17.77Q47.6-18.36 48.33-19.14 49.06-19.92 49.87-20.75 50.68-21.58 51.48-22.39 52.29-23.19 52.95-23.85 53.61-24.51 54.05-24.9 54.48-25.29 54.58-25.29L54.58-25.29 56.44-24.37Q55.61-23.63 54.53-22.66 53.46-21.68 52.43-20.58 51.41-19.48 50.46-18.29 49.5-17.09 48.92-15.92L48.92-15.92Q48.92-15.87 48.89-15.7 48.87-15.53 48.87-15.43L48.87-15.43Q48.87-15.38 48.89-15.21 48.92-15.04 48.92-14.99L48.92-14.99 60.2-1.86Q60.2-1.81 60.22-1.66 60.25-1.51 60.25-1.42L60.25-1.42Q60.25-0.49 59.27 0L59.27 0 47.06-14.06Q47.01-14.11 46.94-14.23 46.87-14.36 46.77-14.5L46.77-14.5 47.31-5.03Q47.31-4.79 47.33-4.1 47.36-3.42 47.38-2.61 47.4-1.81 47.43-1.1 47.45-0.39 47.45-0.15L47.45-0.15Q46.82-0.15 46.28-0.42 45.74-0.68 45.45-1.32ZM70.74-2.83L70.74-2.83Q69.42-2.1 68.35-1.95 67.28-1.81 65.91-1.81L65.91-1.81Q65.37-1.81 64.71-1.88 64.05-1.95 63.49-2.22 62.93-2.49 62.56-2.95 62.2-3.42 62.2-4.25L62.2-4.25Q62.2-4.74 63.17-4.93 64.15-5.13 65.64-5.4 67.13-5.66 68.86-6.2 70.6-6.74 72.08-7.93 73.57-9.13 74.57-11.23 75.58-13.33 75.58-16.65L75.58-16.65Q75.58-18.07 75.33-19.6 75.09-21.14 74.45-22.41 73.82-23.68 72.67-24.54 71.52-25.39 69.72-25.39L69.72-25.39Q68.98-25.39 68.4-25.05 67.81-24.71 67.32-24.24 66.84-23.78 66.4-23.19 65.96-22.61 65.44-22.12 64.93-21.63 64.32-21.31 63.71-21 62.83-21L62.83-21Q62.83-22.31 63.44-23.46 64.05-24.61 65.05-25.46 66.05-26.32 67.3-26.81 68.54-27.29 69.81-27.29L69.81-27.29Q71.77-27.29 73.35-26.32 74.94-25.34 76.04-23.83 77.14-22.31 77.72-20.48 78.31-18.65 78.31-16.89L78.31-16.89Q78.31-15.19 77.82-13.53 77.33-11.87 76.53-10.3 75.72-8.74 74.72-7.32 73.72-5.91 72.65-4.69L72.65-4.69Q73.72-3.76 75.16-3.22 76.6-2.69 78.12-2.39 79.63-2.1 81.12-1.98 82.61-1.86 83.88-1.86L83.88-1.86Q83.93-1.81 83.95-1.64 83.97-1.46 83.97-1.42L83.97-1.42Q83.97-0.88 83.58-0.56 83.19-0.24 82.66-0.1 82.12 0.05 81.53 0.07 80.95 0.1 80.56 0.1L80.56 0.1Q79.24 0.1 78.07-0.15 76.89-0.39 75.72-0.81 74.55-1.22 73.33-1.73 72.11-2.25 70.74-2.83ZM67.96-3.71L67.96-3.71Q68.06-3.96 67.74-4.05 67.42-4.15 67.03-4.15 66.64-4.15 66.3-4.05 65.96-3.96 66.05-3.71L66.05-3.71Q66.2-3.52 66.47-3.42 66.74-3.32 67.03-3.32 67.32-3.32 67.57-3.42 67.81-3.52 67.96-3.71ZM94.03-30.42L94.03-30.42Q95.84-30.42 97.18-29.37 98.52-28.32 99.52-26.56 100.52-24.8 101.21-22.51 101.89-20.21 102.33-17.7 102.77-15.19 103.01-12.62 103.26-10.06 103.36-7.81 103.45-5.57 103.48-3.76 103.5-1.95 103.5-0.93L103.5-0.93 102.33-0.93 100.48-11.23Q100.23-11.47 99.38-11.52 98.52-11.57 97.38-11.47 96.23-11.38 94.88-11.21 93.54-11.04 92.35-10.96 91.15-10.89 90.17-10.91 89.2-10.94 88.76-11.23L88.76-11.23 88.76-0.93 86.27-0.93Q86.27-1.07 86.29-1.49 86.32-1.9 86.32-2.34 86.32-2.78 86.36-3.17 86.41-3.56 86.41-3.71L86.41-3.71Q86.71-6.54 86.88-9.45 87.05-12.35 87.29-15.09 87.54-17.82 87.95-20.31 88.37-22.8 89.15-24.83 89.93-26.86 91.1-28.3 92.27-29.74 94.03-30.42ZM94.81-28.17L94.81-28.17Q93.54-28.17 92.69-27.27 91.83-26.37 91.3-24.93 90.76-23.49 90.47-21.73 90.17-19.97 90.08-18.29 89.98-16.6 89.95-15.16 89.93-13.72 89.93-12.94L89.93-12.94Q92.32-12.94 94.81-13.31 97.3-13.67 99.5-14.06L99.5-14.06Q99.55-14.26 99.57-14.7 99.6-15.14 99.62-15.67 99.65-16.21 99.67-16.7 99.69-17.19 99.69-17.33L99.69-17.33Q99.69-18.95 99.52-20.41 99.35-21.88 98.84-23.27 98.33-24.66 97.38-25.88 96.42-27.1 94.81-28.17ZM106.33-0.24L106.33-0.24Q106.24-1.03 106.16-2.51 106.09-4 106.02-5.88 105.94-7.76 105.89-9.81 105.84-11.87 105.8-13.72 105.75-15.58 105.67-17.07 105.6-18.55 105.45-19.34L105.45-19.34Q105.45-19.38 105.43-19.58 105.4-19.78 105.38-20.02 105.36-20.26 105.36-20.43 105.36-20.61 105.36-20.7L105.36-20.7Q106.09-21.29 106.6-21.09 107.11-20.9 107.46-20.24 107.8-19.58 107.94-18.6 108.09-17.63 108.16-16.65 108.24-15.67 108.24-14.87 108.24-14.06 108.24-13.72L108.24-13.72Q108.33-14.55 108.53-15.67 108.73-16.8 109.12-17.97 109.51-19.14 110.07-20.29 110.63-21.44 111.46-22.31 112.29-23.19 113.34-23.68 114.39-24.17 115.76-24.07L115.76-24.07Q117.9-23.97 119.3-22.9 120.69-21.83 121.49-20.02 122.3-18.21 122.67-15.87 123.03-13.53 123.15-10.89 123.28-8.25 123.23-5.54 123.18-2.83 123.18-0.34L123.18-0.34Q122.74-0.24 122.3-0.02 121.86 0.2 121.57 0.17 121.27 0.15 121.15-0.27 121.03-0.68 121.23-1.9L121.23-1.9Q121.27-2.78 121.4-4.61 121.52-6.45 121.49-8.69 121.47-10.94 121.23-13.33 120.98-15.72 120.32-17.7 119.66-19.68 118.44-20.92 117.22-22.17 115.27-22.17L115.27-22.17Q113.27-21.34 111.92-19.04 110.58-16.75 109.78-13.67 108.97-10.6 108.6-7.01 108.24-3.42 108.19 0L108.19 0Q108.09-0.05 107.82-0.05 107.55-0.05 107.24-0.07 106.92-0.1 106.65-0.15 106.38-0.2 106.33-0.24ZM137.09 20.17L134.89 20.02Q134.89 17.58 135.33 14.99 135.77 12.4 136.24 9.81 136.7 7.23 137.02 4.64 137.34 2.05 137.09-0.44L137.09-0.44 124.93-21.04Q126.01-22.02 126.64-22.14 127.28-22.27 127.38-22.17L127.38-22.17Q127.72-21.68 128.52-20.36 129.33-19.04 130.38-17.29 131.43-15.53 132.6-13.57 133.77-11.62 134.82-9.86 135.87-8.11 136.63-6.74 137.38-5.37 137.68-4.83L137.68-4.83 139.92-22.95 142.37-21.73 137.09 20.17ZM144.56-1.81L144.56-1.81Q145.49-2 145.98-2.08 146.46-2.15 146.78-2.2 147.1-2.25 147.34-2.25 147.59-2.25 147.98-2.29 148.37-2.34 149.03-2.44 149.69-2.54 150.91-2.83L150.91-2.83Q151.35-4.15 151.59-5.88 151.84-7.62 151.98-9.59 152.13-11.57 152.2-13.67 152.27-15.77 152.32-17.82 152.37-19.87 152.47-21.8 152.57-23.73 152.76-25.29L152.76-25.29Q152.71-25.29 152.54-25.32 152.37-25.34 152.32-25.34L152.32-25.34Q151.3-25.34 150.35-24.9 149.39-24.46 148.47-23.95 147.54-23.44 146.59-23 145.63-22.56 144.56-22.56L144.56-22.56 144.36-24.37Q144.41-24.37 145-24.66 145.59-24.95 146.49-25.32 147.39-25.68 148.54-26.15 149.69-26.61 150.81-27.03 151.93-27.44 152.93-27.78 153.94-28.13 154.67-28.27L154.67-28.27 154.67-3.71Q155.11-3.27 155.96-3.2 156.82-3.13 157.77-3.17 158.72-3.22 159.67-3.27 160.62-3.32 161.31-3.17L161.31-3.17 161.26-1.17Q159.26-1.17 157.3-0.98 155.35-0.78 153.42-0.56 151.49-0.34 149.56-0.15 147.64 0.05 145.73 0.05L145.73 0.05Q145.19 0.05 145.05-0.54 144.9-1.12 144.56-1.81Z" opacity="1" transform="matrix(1,0,0,1,0,0)" fill="black" class="wordmark-text-0" id="SvgjsPath1743"></path></svg></g></svg></g></svg></g></svg></g><g transform="matrix(1,0,0,1,429.180590011754,0)"><svg viewBox="0 0 214.48851839999998 214.48851839999998" height="214.48851839999998" width="214.48851839999998"><g><svg></svg></g><g id="SvgjsG1742"><svg viewBox="0 0 214.48851839999998 214.48851839999998" height="214.48851839999998" width="214.48851839999998"><g><rect width="195.02567136" height="195.02567136" x="9.731423519999993" y="9.731423519999993" fill="black"></rect><rect width="195.02567136" height="195.02567136" x="-5.329070518200751e-15" y="-5.329070518200751e-15" fill="black" opacity="0.5"></rect></g><g transform="matrix(1,0,0,1,27.80437133239039,27.80406719999999)"><svg viewBox="0 0 158.8797757352192 158.880384" height="158.880384" width="158.8797757352192"><g><svg xmlns="http://www.w3.org/2000/svg" xmlns:xlink="http://www.w3.org/1999/xlink" version="1.1" x="0" y="0" viewBox="19.403 19.403 261.19300003318745 261.19399999999996" enable-background="new 0 0 300 300" xml:space="preserve" height="158.880384" width="158.8797757352192" class="icon-dxe-0" data-fill-palette-color="quaternary" id="SvgjsSvg1741"><path d="M230.223 280.597H69.777C42.001 280.597 19.403 258 19.403 230.225V69.777C19.403 42.001 42.001 19.403 69.777 19.403H230.222C257.998 19.403 280.596 42.001 280.596 69.777V230.225C280.597 258 257.999 280.597 230.223 280.597M69.777 30.598C48.173 30.598 30.596 48.174 30.596 69.777V230.225C30.596 251.828 48.172 269.404 69.777 269.404H230.222C251.826 269.404 269.403 251.828 269.403 230.225V69.777C269.403 48.173 251.827 30.598 230.222 30.598z" fill="black"></path><polygon points="128.092,94.407 128.092,104.407 202.5,104.407 202.5,175.592 179.929,175.592 171.998,183.523 164.067,175.592   97.5,175.592 97.5,104.407 108.092,104.407 108.092,94.407 87.5,94.407 87.5,185.592 159.925,185.592 171.998,197.664   184.071,185.592 212.5,185.592 212.5,94.407 " fill="black"></polygon></svg></g></svg></g></svg></g></svg></g></svg></g><defs><mask></mask></defs></svg><rect width="395.52" height="131.79830706323023" fill="black" stroke="none" visibility="hidden"></rect></g></mask></svg><rect width="395.52" height="131.79830706323023" fill="black" stroke="none" visibility="hidden"></rect></g></mask><linearGradient x1="0" x2="1" y1="0.578" y2="0.595" id="f592a373-d52f-46b4-abb3-be068309fd7b"><stop stop-color="#6ee2f5" offset="0"></stop><stop stop-color="#6454f0" offset="1"></stop></linearGradient><rect width="395.52" height="131.79830706323023" fill="#ffffff" mask="url(#cd12e504-2a04-40c7-b972-77a42662fc5d)" data-fill-palette-color="accent"></rect></svg><rect width="395.52" height="131.79830706323023" fill="none" stroke="none" visibility="hidden"></rect></g></svg></g></svg>